<svg width="13.677063" height="17.000000" viewBox="0 0 13.6771 17" fill="none" xmlns="http://www.w3.org/2000/svg" xmlns:xlink="http://www.w3.org/1999/xlink">
	<desc>
			Created with Pixso.
	</desc>
	<defs/>
	<mask id="mask_24_5" fill="white">
		<path id="shop bag" d="M2.8385 3C2.8385 1.34314 4.1817 0 5.8385 0L7.8385 0C9.49536 0 10.8385 1.34314 10.8385 3L10.8385 5L11.0547 5C12.0991 5 12.9677 5.80359 13.0487 6.84497L13.6709 14.845C13.7613 16.0071 12.8427 17 11.6769 17L2.00012 17C0.834412 17 -0.0842285 16.0071 0.00616455 14.845L0.628357 6.84497C0.709351 5.80359 1.57794 5 2.62231 5L2.8385 5L2.8385 3ZM3.8385 5L9.8385 5L9.8385 3C9.8385 1.89539 8.94312 1 7.8385 1L5.8385 1C4.73395 1 3.8385 1.89539 3.8385 3L3.8385 5ZM10.8385 6L2.62231 6C2.10016 6 1.66583 6.40186 1.62537 6.92249L1.00311 14.9225C0.957947 15.5035 1.4173 16 2.00012 16L11.6769 16C12.2598 16 12.7191 15.5035 12.6739 14.9225L12.0517 6.92249C12.0112 6.40186 11.5769 6 11.0547 6L10.8385 6Z" clip-rule="evenodd" fill="" fill-opacity="1.000000" fill-rule="evenodd"/>
	</mask>
	<path id="shop bag" d="M2.8385 3C2.8385 1.34314 4.1817 0 5.8385 0L7.8385 0C9.49536 0 10.8385 1.34314 10.8385 3L10.8385 5L11.0547 5C12.0991 5 12.9677 5.80359 13.0487 6.84497L13.6709 14.845C13.7613 16.0071 12.8427 17 11.6769 17L2.00012 17C0.834412 17 -0.0842285 16.0071 0.00616455 14.845L0.628357 6.84497C0.709351 5.80359 1.57794 5 2.62231 5L2.8385 5L2.8385 3ZM3.8385 5L9.8385 5L9.8385 3C9.8385 1.89539 8.94312 1 7.8385 1L5.8385 1C4.73395 1 3.8385 1.89539 3.8385 3L3.8385 5ZM10.8385 6L2.62231 6C2.10016 6 1.66583 6.40186 1.62537 6.92249L1.00311 14.9225C0.957947 15.5035 1.4173 16 2.00012 16L11.6769 16C12.2598 16 12.7191 15.5035 12.6739 14.9225L12.0517 6.92249C12.0112 6.40186 11.5769 6 11.0547 6L10.8385 6Z" clip-rule="evenodd" fill="#1C2A39" fill-opacity="1.000000" fill-rule="evenodd" mask="url(#mask_24_5)"/>
	<path id="shop bag" d="M10.8385 4L10.8385 3C10.8385 2.67777 10.7877 2.3674 10.6937 2.07647C10.6446 1.92477 10.5838 1.77835 10.5124 1.63829C10.2283 1.08156 9.77544 0.625314 9.22126 0.336975C9.06726 0.256845 8.90542 0.189683 8.73721 0.136935C8.45347 0.0479604 8.15159 0 7.8385 0L5.8385 0C5.52704 0 5.22667 0.047466 4.94421 0.135559C4.77107 0.189559 4.60467 0.258825 4.44657 0.341781C4.18754 0.477699 3.95082 0.650369 3.74333 0.852862C3.72464 0.871101 3.70619 0.889581 3.68799 0.908298C3.48471 1.11726 3.31162 1.35574 3.17577 1.6167C3.0963 1.76936 3.02957 1.92971 2.977 2.09635C2.88702 2.38152 2.8385 2.68509 2.8385 3L2.8385 5L2.62231 5C2.42793 5 2.23963 5.02784 2.06137 5.07987C1.9485 5.11281 1.83966 5.15545 1.73583 5.20687C1.39396 5.37617 1.10656 5.64058 0.909398 5.96705C0.845389 6.07303 0.79089 6.18556 0.747126 6.3035C0.683914 6.47384 0.643095 6.65547 0.628357 6.84497L0.00616455 14.845C-0.00923897 15.043 0.00465803 15.2361 0.0440851 15.4202C0.0767357 15.5727 0.126895 15.719 0.19242 15.8569C0.279937 16.041 0.394865 16.2099 0.532104 16.3583Q0.535364 16.3618 0.538637 16.3653C0.671762 16.5078 0.82559 16.631 0.995537 16.73C1.13212 16.8095 1.27911 16.8733 1.43413 16.919C1.61329 16.9717 1.80318 17 2.00012 17L11.6769 17C11.8739 17 12.0638 16.9717 12.2429 16.919C12.3983 16.8732 12.5456 16.8092 12.6824 16.7295C12.852 16.6306 13.0055 16.5076 13.1384 16.3653Q13.1417 16.3618 13.145 16.3583Q13.1466 16.3565 13.1482 16.3548C13.2817 16.2097 13.394 16.0451 13.4803 15.8661C13.5479 15.7255 13.5996 15.5761 13.633 15.4202C13.6724 15.2361 13.6863 15.043 13.6709 14.845L13.0487 6.84497C13.0346 6.66345 12.9965 6.48916 12.9378 6.32509C12.8905 6.193 12.8298 6.06754 12.7574 5.95026C12.6719 5.81181 12.5701 5.68478 12.4547 5.57172C12.426 5.54357 12.3964 5.51629 12.3661 5.48991C12.2389 5.37942 12.0977 5.28483 11.9457 5.20908C11.8401 5.15648 11.7293 5.11295 11.6144 5.07949C11.4365 5.0277 11.2486 5 11.0547 5L10.8385 5L10.8385 4ZM9.8385 5L9.8385 3C9.8385 2.46244 9.62645 1.97443 9.28142 1.61505C8.91747 1.23596 8.40555 1 7.8385 1L5.8385 1C5.31067 1 4.83059 1.20447 4.47316 1.53853C4.43987 1.56964 4.40765 1.60187 4.37655 1.63517C4.04278 1.99254 3.8385 2.47241 3.8385 3L3.8385 5L9.8385 5ZM3.8385 6L2.62231 6C2.10016 6 1.66583 6.40186 1.62537 6.92249L1.00311 14.9225C0.957947 15.5035 1.4173 16 2.00012 16L11.6769 16C12.2598 16 12.7191 15.5035 12.6739 14.9225L12.0517 6.92249C12.0317 6.66523 11.9155 6.43697 11.7401 6.27187Q11.737 6.26891 11.7338 6.26599C11.5549 6.10046 11.3158 6 11.0547 6L3.8385 6Z" clip-rule="evenodd" fill="#1C2A39" fill-opacity="1.000000" fill-rule="evenodd"/>
</svg>
