<svg width="12.000000" height="15.000000" viewBox="0 0 12 15" fill="none" xmlns="http://www.w3.org/2000/svg" xmlns:xlink="http://www.w3.org/1999/xlink">
	<desc>
			Created with Pixso.
	</desc>
	<defs/>
	<mask id="mask_24_12" fill="white">
		<path id="user" d="M6 8C8.20914 8 10 6.20911 10 4C10 1.79089 8.20914 0 6 0C3.79086 0 2 1.79089 2 4C2 6.20911 3.79086 8 6 8ZM6 7C7.65686 7 9 5.65686 9 4C9 2.34314 7.65686 1 6 1C4.34314 1 3 2.34314 3 4C3 5.65686 4.34314 7 6 7ZM0 13C0 10.7909 1.79086 9 4 9L8 9C10.2091 9 12 10.7909 12 13L12 15L0 15L0 13ZM4 10L8 10C9.65686 10 11 11.3431 11 13L11 14L1 14L1 13C1 11.3431 2.34314 10 4 10Z" clip-rule="evenodd" fill="" fill-opacity="1.000000" fill-rule="evenodd"/>
	</mask>
	<path id="user" d="M6 8C8.20914 8 10 6.20911 10 4C10 1.79089 8.20914 0 6 0C3.79086 0 2 1.79089 2 4C2 6.20911 3.79086 8 6 8ZM6 7C7.65686 7 9 5.65686 9 4C9 2.34314 7.65686 1 6 1C4.34314 1 3 2.34314 3 4C3 5.65686 4.34314 7 6 7ZM0 13C0 10.7909 1.79086 9 4 9L8 9C10.2091 9 12 10.7909 12 13L12 15L0 15L0 13ZM4 10L8 10C9.65686 10 11 11.3431 11 13L11 14L1 14L1 13C1 11.3431 2.34314 10 4 10Z" clip-rule="evenodd" fill="#1C2A39" fill-opacity="1.000000" fill-rule="evenodd" mask="url(#mask_24_12)"/>
	<path id="user" d="M6 9L4 9C3.54911 9 3.11565 9.0746 2.71128 9.21214C2.5476 9.26781 2.38869 9.3338 2.23532 9.40932C1.86364 9.59233 1.5245 9.83136 1.22892 10.1154C1.19032 10.1525 1.15246 10.1903 1.11537 10.2289C0.839528 10.516 0.606124 10.8442 0.425255 11.2033C0.338275 11.376 0.263445 11.5559 0.201886 11.7418C0.0708993 12.1375 0 12.5605 0 13L0 15L12 15L12 13C12 12.5604 11.9291 12.1374 11.7981 11.7418C11.7365 11.5559 11.6617 11.376 11.5747 11.2033C11.3939 10.8442 11.1605 10.516 10.8846 10.2289C10.8475 10.1903 10.8097 10.1525 10.7711 10.1154C10.4755 9.83136 10.1364 9.59233 9.76469 9.40932C9.61132 9.3338 9.4524 9.26781 9.28872 9.21214C8.88435 9.0746 8.45089 9 8 9L6 9ZM1 14L11 14L11 13C11 12.1766 10.6683 11.4307 10.1312 10.8886Q10.1263 10.8837 10.1213 10.8787C9.57842 10.3358 8.82843 10 8 10L4 10C3.17158 10 2.42158 10.3358 1.87869 10.8787Q1.87371 10.8836 1.86882 10.8886C1.33172 11.4307 1 12.1766 1 13L1 14ZM4.70838 7.78687C5.11357 7.92504 5.54803 8 6 8C6.45197 8 6.88643 7.92504 7.29162 7.78687C7.45427 7.73141 7.61221 7.66576 7.76467 7.59069C8.13635 7.40768 8.4755 7.16865 8.77108 6.88463C8.80968 6.84754 8.84754 6.80968 8.88463 6.77108C9.16047 6.48401 9.39388 6.15584 9.57475 5.79669C9.66171 5.624 9.73654 5.44414 9.79809 5.25824C9.92909 4.86259 10 4.43958 10 4C10 3.56044 9.9291 3.13743 9.7981 2.7418C9.73654 2.55588 9.66172 2.37601 9.57475 2.20331C9.39388 1.84416 9.16047 1.51599 8.88463 1.22892C8.84754 1.19032 8.80968 1.15246 8.77108 1.11537C8.47548 0.831339 8.13632 0.592303 7.76462 0.409285C7.61218 0.334224 7.45426 0.268586 7.29162 0.213129C6.88643 0.0749614 6.45197 0 6 0C5.54803 0 5.11357 0.0749614 4.70838 0.213129C4.54574 0.268586 4.38782 0.334225 4.23537 0.409287C3.86312 0.592579 3.5235 0.832054 3.22759 1.11665C3.18945 1.15333 3.15204 1.19076 3.11537 1.22892C2.83987 1.51563 2.60671 1.84333 2.42594 2.20196C2.33867 2.37508 2.26361 2.55542 2.20189 2.74183C2.0709 3.13745 2 3.56045 2 4C2 4.43957 2.0709 4.86257 2.2019 5.25821C2.26346 5.44412 2.33828 5.62399 2.42525 5.79669C2.60612 6.15584 2.83953 6.48401 3.11537 6.77108C3.15246 6.80968 3.19032 6.84754 3.22892 6.88463C3.52451 7.16865 3.86365 7.40768 4.23534 7.5907C4.3878 7.66576 4.54573 7.73141 4.70838 7.78687ZM3.87869 6.12134C4.42158 6.66422 5.17158 7 6 7C6.82842 7 7.57842 6.66422 8.12131 6.12134Q8.12628 6.11637 8.13118 6.11142C8.66828 5.56933 9 4.8234 9 4C9 3.1766 8.66828 2.43067 8.13118 1.88858Q8.1263 1.88366 8.12131 1.87866C7.57842 1.33578 6.82842 1 6 1C5.17157 1 4.42158 1.33578 3.87868 1.87867Q3.87375 1.8836 3.86882 1.88858C3.33172 2.43067 3 3.1766 3 4C3 4.8234 3.33172 5.56933 3.86882 6.11142Q3.87378 6.11642 3.87869 6.12134Z" clip-rule="evenodd" fill="#1C2A39" fill-opacity="1.000000" fill-rule="evenodd"/>
</svg>
